<svg class="btn-close" version="1.1" xmlns="http://www.w3.org/2000/svg" xmlns:xlink="http://www.w3.org/1999/xlink" x="0px" y="0px"
	viewBox="0 0 282 231.225" enable-background="new 0 0 282 231.225" xml:space="preserve">
<g id="Layer_4" display="none">
	<path display="inline" d="M282,51.045c0,2.658-2.809,4.815-6.273,4.815H6.275C2.81,55.86,0,53.703,0,51.045V21.344
		c0-2.66,2.81-4.816,6.274-4.816h269.452c3.465,0,6.273,2.156,6.273,4.816V51.045z"/>
	<path display="inline" d="M282,126.21c0,2.658-2.81,4.816-6.274,4.816H6.274C2.81,131.026,0,128.868,0,126.21v-29.7
		c0-2.66,2.81-4.816,6.274-4.816h269.452c3.465,0,6.274,2.156,6.274,4.816V126.21z"/>
	<path display="inline" d="M282.001,201.376c0,2.658-2.81,4.816-6.274,4.816H6.275c-3.465,0-6.274-2.158-6.274-4.816v-29.7
		c0-2.66,2.81-4.816,6.274-4.816h269.452c3.465,0,6.274,2.156,6.274,4.816V201.376z"/>
</g>
<g id="Layer_5">
	<path d="M230.203,221.563c-1.88,1.879-5.393,1.418-7.843-1.031L31.829,30c-2.45-2.45-2.91-5.962-1.03-7.841L51.799,1.158
		c1.882-1.881,5.393-1.42,7.842,1.03L250.173,192.72c2.449,2.449,2.911,5.961,1.03,7.842L230.203,221.563z"/>
	<path d="M251.205,22.158c1.879,1.88,1.418,5.393-1.031,7.843L59.642,220.532c-2.45,2.449-5.962,2.91-7.842,1.029l-21.001-21
		c-1.881-1.883-1.42-5.393,1.03-7.842L222.361,2.187c2.449-2.449,5.961-2.911,7.842-1.03L251.205,22.158z"/>
</g>
</svg>
