<svg class="btn-close" width="37px" height="29px" viewBox="0 0 37 29" version="1.1" xmlns="http://www.w3.org/2000/svg" xmlns:xlink="http://www.w3.org/1999/xlink" xmlns:sketch="http://www.bohemiancoding.com/sketch/ns">
    <g id="Page-1" stroke="none" stroke-width="1" fill="none" fill-rule="evenodd" sketch:type="MSPage">
        <g id="Close-2" sketch:type="MSLayerGroup" transform="translate(4.000000, 0.000000)" fill="#000000">
            <!-- <path d="M0,1 C0,0.44771525 0.455520749,0 0.998245642,0 L28.0017544,0 C28.5530702,0 29,0.443864822 29,1 L29,1 C29,1.55228475 28.5517161,2 28.002507,2 L1.49762788,2 L0.999421484,2 C0.44745624,2 0,1.55613518 0,1 L0,1 Z" id="Rectangle-13" sketch:type="MSShapeGroup"></path> -->
            <!-- <rect id="Rectangle-13-Copy-2" sketch:type="MSShapeGroup" x="0" y="0" width="2" height="29" rx="1"></rect> -->
            <!-- <rect id="Rectangle-13-Copy-3" sketch:type="MSShapeGroup" x="27" y="0" width="2" height="29" rx="1"></rect> -->
            <path d="M13,17.3008058 L13,1.74910219 C13,1.19731329 13.4426603,0.75 13.9989566,0.75 L15.0010434,0.75 C15.5527519,0.75 16,1.2043699 16,1.74498593 L16,27.2550141 C16,27.8045296 15.5573397,28.25 15.0010434,28.25 L13.9989566,28.25 C13.4472481,28.25 13,27.8078352 13,27.2468867 L13,17.3008058 Z" id="Rectangle-13-Copy-4" sketch:type="MSShapeGroup" transform="translate(14.500000, 14.500000) rotate(-135.000000) translate(-14.500000, -14.500000) "></path>
            <path d="M13,17.3008058 L13,1.74910219 C13,1.19731329 13.4426603,0.75 13.9989566,0.75 L15.0010434,0.75 C15.5527519,0.75 16,1.2043699 16,1.74498593 L16,27.2550141 C16,27.8045296 15.5573397,28.25 15.0010434,28.25 L13.9989566,28.25 C13.4472481,28.25 13,27.8078352 13,27.2468867 L13,17.3008058 Z" id="Rectangle-13-Copy-8" sketch:type="MSShapeGroup" transform="translate(14.500000, 14.500000) rotate(-225.000000) translate(-14.500000, -14.500000) "></path>
            <!-- <rect id="Rectangle-13-Copy" sketch:type="MSShapeGroup" x="0" y="27" width="29" height="2" rx="1"></rect> -->
        </g>
    </g>
</svg>
