<svg width="50px" height="50px" viewBox="0 0 50 50" version="1.1" xmlns="http://www.w3.org/2000/svg" xmlns:xlink="http://www.w3.org/1999/xlink" xmlns:sketch="http://www.bohemiancoding.com/sketch/ns">
    <g id="Page-1" stroke="none" stroke-width="1" fill="none" fill-rule="evenodd" sketch:type="MSPage">
        <path d="M3,25 C3,12.848752 12.8479259,3 25,3 C37.151248,3 47,12.8479259 47,25 C47,37.151248 37.1520741,47 25,47 C12.848752,47 3,37.1520741 3,25 L3,25 Z M1,25 C1,38.2566811 11.7442201,49 25,49 C38.2566811,49 49,38.2557799 49,25 C49,11.7433189 38.2557799,1 25,1 C11.7433189,1 1,11.7442201 1,25 L1,25 Z" id="Shape" fill="#000000" sketch:type="MSShapeGroup"></path>
        <g id="Hose" sketch:type="MSLayerGroup" transform="translate(15.000000, 18.000000)" fill="#000000">
            <path d="M2.31679212,20.6781364 C3.99517776,20.3821246 5.67578429,19.9179262 7.25847708,19.2437438 C13.3690026,16.6408327 16.3204827,11.7116953 14.0929615,4.28075437 C13.6418438,2.90714774 13.0332006,1.94388099 12.2454767,1.33730022 C11.1614705,0.502569519 9.94806888,0.451837411 8.88437824,0.867183949 C8.64241788,0.961663861 8.45300337,1.06311034 8.31836352,1.15167636 L9.951546,3.39395377 C10.1498266,3.32131258 10.2704598,3.32635624 10.4389195,3.45607729 C10.7374115,3.68592879 11.0586838,4.19438912 11.3435824,5.06095139 C13.1402295,11.0561032 10.9750004,14.6721572 6.08475146,16.755265 C4.72959127,17.3325249 3.26249817,17.7377491 1.79318419,17.9968875 C1.27817501,18.0877181 0.801252129,18.1535173 0.375956478,18.1981952 C0.128009395,18.2242424 0.113290317,18.2599632 0.0342582549,18.2640385 L0.0342582549,20.9643677 C0.512181784,20.9397238 1.30704617,20.8562222 2.31679212,20.6781364 Z" id="Shape" sketch:type="MSShapeGroup"></path>
            <path d="M19.6629242,18.1981952 C19.2376286,18.1535173 18.7607057,18.0877181 18.2456965,17.9968875 C16.7763825,17.7377491 15.3092894,17.3325249 13.9541293,16.755265 C9.06388027,14.6721572 6.89865123,11.0561032 8.70568698,5.02788875 C8.98019695,4.19438912 9.30146924,3.68592879 9.59996126,3.45607729 C9.76842089,3.32635624 9.88905413,3.32131258 10.0639109,3.3895901 C10.0993576,3.40343122 11.7205172,1.15167636 11.7205172,1.15167636 C11.5858773,1.06311034 11.3964628,0.961663861 11.1545025,0.867183949 C10.0908118,0.451837411 8.87741022,0.502569519 7.79340399,1.33730022 C7.00568007,1.94388099 6.3970369,2.90714774 5.95630789,4.24769173 C3.71839799,11.7116953 6.66987812,16.6408327 12.7804036,19.2437438 C14.3630964,19.9179262 16.043703,20.3821246 17.7220886,20.6781364 C18.7318345,20.8562222 19.5266989,20.9397238 20.0046225,20.9643677 L20.0046224,18.2646488 C19.9255903,18.2605736 19.9108713,18.2242424 19.6629242,18.1981952 Z" id="Shape" sketch:type="MSShapeGroup"></path>
        </g>
        <g id="Points" sketch:type="MSLayerGroup" transform="translate(13.000000, 6.000000)" fill="#505050">
            <path d="M3.19539615,13.8051829 C4.32039615,14.3051829 4.32039615,14.3051829 5.44539615,14.8051829 L6.05460385,13.4344656 C4.92960385,12.9344656 4.92960385,12.9344656 3.80460385,12.4344656 C2.67960385,11.9344656 2.67960385,11.9344656 1.55460385,11.4344656 L0.94539615,12.8051829 C2.07039615,13.3051829 2.07039615,13.3051829 3.19539615,13.8051829 Z" id="Shape" sketch:type="MSShapeGroup"></path>
            <path d="M12.2054118,9.45869041 L13.6992003,9.59505801 L14.5163604,0.643779045 L13.022572,0.507411444 L12.2054118,9.45869041 Z" id="Shape" sketch:type="MSShapeGroup"></path>
            <path d="M21.8950571,7.40068418 L20.8230875,6.35145526 C18.6345099,8.58746732 18.6345099,8.58746732 16.4459323,10.8234794 L17.5179018,11.8727083 C19.7064795,9.63669624 19.7064795,9.63669624 21.8950571,7.40068418 Z" id="Shape" sketch:type="MSShapeGroup"></path>
            <path d="M3.46377241,4.49713279 L7.43450866,10.8584609 L8.70696384,10.0641953 L4.73622759,3.70286721 L3.46377241,4.49713279 L3.46377241,4.49713279 Z M4.73622759,3.70286721 L3.46377241,4.49713279 L7.43450866,10.8584609 L8.70696384,10.0641953 L4.73622759,3.70286721 L4.73622759,3.70286721 Z" id="Shape" sketch:type="MSShapeGroup"></path>
        </g>
    </g>
</svg>
