<svg class="btn-menu" width="67px" height="29px" viewBox="0 0 67 29" version="1.1" xmlns="http://www.w3.org/2000/svg" xmlns:xlink="http://www.w3.org/1999/xlink" xmlns:sketch="http://www.bohemiancoding.com/sketch/ns">
    <g id="Page-1" stroke="none" stroke-width="1" fill="none" fill-rule="evenodd" sketch:type="MSPage">
        <rect id="Rectangle-41-Copy-3" stroke="#000000" stroke-width="2" sketch:type="MSShapeGroup" x="1" y="1" width="65" height="27" rx="14"></rect>
        <path d="M13.1869919,21 L11.5934959,21 L11.5934959,9.3902439 L13.3495935,9.3902439 L16.9918699,17.699187 L17.0731707,17.699187 L20.7154472,9.3902439 L22.4552846,9.3902439 L22.4552846,21 L20.8617886,21 L20.8617886,12.8699187 L20.7804878,12.8699187 L17.6910569,19.796748 L16.3577236,19.796748 L13.2682927,12.8699187 L13.1869919,12.8699187 L13.1869919,21 Z M32.7479675,19.4065041 L32.7479675,21 L25.6097561,21 L25.6097561,9.3902439 L32.7479675,9.3902439 L32.7479675,10.9837398 L27.3495935,10.9837398 L27.3495935,14.3333333 L32.4390244,14.3333333 L32.4390244,15.8617886 L27.3495935,15.8617886 L27.3495935,19.4065041 L32.7479675,19.4065041 Z M37.1869919,21 L35.4796748,21 L35.4796748,9.3902439 L37.0731707,9.3902439 L42.6504065,17.796748 L42.7317073,17.796748 L42.7317073,9.3902439 L44.4390244,9.3902439 L44.4390244,21 L42.8455285,21 L37.2682927,12.5772358 L37.1869919,12.5772358 L37.1869919,21 Z M49.1869919,9.3902439 L49.1869919,16.8536585 C49.1869919,17.2764249 49.2520319,17.6585349 49.3821138,18 C49.5121958,18.3414651 49.6937658,18.6287251 49.9268293,18.8617886 C50.1598928,19.0948521 50.4471528,19.2764221 50.7886179,19.4065041 C51.130083,19.536586 51.512193,19.601626 51.9349593,19.601626 C52.7696519,19.601626 53.4363119,19.355016 53.9349593,18.8617886 C54.4336068,18.3685612 54.6829268,17.6991912 54.6829268,16.8536585 L54.6829268,9.3902439 L56.4227642,9.3902439 L56.4227642,16.9674797 C56.4227642,18.2466189 56.0108442,19.2791289 55.1869919,20.0650407 C54.3631395,20.8509524 53.2764295,21.2439024 51.9268293,21.2439024 C50.577229,21.2439024 49.490519,20.8482424 48.6666667,20.0569106 C47.8428143,19.2655787 47.4308943,18.2249387 47.4308943,16.9349593 L47.4308943,9.3902439 L49.1869919,9.3902439 Z" id="MENU" fill="#000000" sketch:type="MSShapeGroup"></path>
    </g>
</svg>
