<!-- width="67px" height="29px" -->
<svg class="btn-sort" viewBox="0 0 67 29" version="1.1" xmlns="http://www.w3.org/2000/svg" xmlns:xlink="http://www.w3.org/1999/xlink" xmlns:sketch="http://www.bohemiancoding.com/sketch/ns">
    <g id="Page-1" stroke="none" stroke-width="1" fill="none" fill-rule="evenodd" sketch:type="MSPage">
        <rect id="Rectangle-41" stroke="#000000" stroke-width="2" fill="#FFFFFF" sketch:type="MSShapeGroup" x="1" y="1" width="65" height="27" rx="14"></rect>
        <path d="M12.7479675,17.7804878 L14.4715447,17.7804878 C14.5040652,18.1382132 14.6233052,18.4552832 14.8292683,18.7317073 C15.0352314,19.0081315 15.3414614,19.2330615 15.7479675,19.4065041 C16.1544736,19.5799467 16.6341436,19.6666667 17.1869919,19.6666667 C17.9566434,19.6666667 18.5636834,19.5013567 19.0081301,19.1707317 C19.4525767,18.8401067 19.6747967,18.3983767 19.6747967,17.8455285 C19.6747967,17.4010818 19.5257467,17.0487818 19.2276423,16.7886179 C18.9295378,16.528454 18.4607078,16.317074 17.8211382,16.1544715 L15.8536585,15.6829268 C15.4742528,15.5853654 15.1246628,15.4579954 14.804878,15.300813 C14.4850933,15.1436307 14.1897033,14.9430907 13.9186992,14.699187 C13.6476951,14.4552833 13.4363151,14.1517633 13.2845528,13.7886179 C13.1327906,13.4254724 13.0569106,13.0162624 13.0569106,12.5609756 C13.0569106,11.8455249 13.2520306,11.2249349 13.6422764,10.699187 C14.0325223,10.1734391 14.5365823,9.78048911 15.1544715,9.5203252 C15.7723608,9.2601613 16.4498608,9.1300813 17.1869919,9.1300813 C17.9241229,9.1300813 18.5962029,9.2574513 19.203252,9.51219512 C19.8103011,9.76693894 20.3089411,10.1544689 20.699187,10.6747967 C21.0894328,11.1951246 21.2899728,11.8075846 21.300813,12.5121951 L19.6097561,12.5121951 C19.5555553,11.9810272 19.3197853,11.5447172 18.902439,11.203252 C18.4850928,10.8617869 17.9078628,10.6910569 17.1707317,10.6910569 C16.7046047,10.6910569 16.2981047,10.7588069 15.9512195,10.8943089 C15.6043343,11.029811 15.3306243,11.227641 15.1300813,11.4878049 C14.9295383,11.7479688 14.8292683,12.0569088 14.8292683,12.4146341 C14.8292683,13.205966 15.3712683,13.726286 16.4552846,13.9756098 L18.3902439,14.4634146 C18.8563709,14.5718163 19.2655809,14.7073163 19.6178862,14.8699187 C19.9701915,15.0325211 20.2872615,15.2384811 20.5691057,15.4878049 C20.8509499,15.7371286 21.0677499,16.0433586 21.2195122,16.4065041 C21.3712745,16.7696495 21.4471545,17.1896995 21.4471545,17.6666667 C21.4471545,18.7832034 21.0379445,19.6585334 20.2195122,20.2926829 C19.4010799,20.9268324 18.3360499,21.2439024 17.0243902,21.2439024 C16.2655789,21.2439024 15.6016289,21.1382124 15.0325203,20.9268293 C14.4634118,20.7154461 14.0189718,20.4363161 13.699187,20.0894309 C13.3794022,19.7425457 13.1436322,19.3766957 12.9918699,18.9918699 C12.8401076,18.6070441 12.7588076,18.2032541 12.7479675,17.7804878 L12.7479675,17.7804878 Z M25.2845528,14.4308943 L25.2845528,16.0569106 C25.2845528,17.216808 25.5582628,18.100268 26.1056911,18.7073171 C26.6531193,19.3143662 27.3712693,19.6178862 28.2601626,19.6178862 C29.1598961,19.6178862 29.8834661,19.3143662 30.4308943,18.7073171 C30.9783225,18.100268 31.2520325,17.216808 31.2520325,16.0569106 L31.2520325,14.4308943 C31.2520325,13.2601567 30.9756125,12.3577267 30.4227642,11.7235772 C29.8699159,11.0894277 29.1490559,10.7723577 28.2601626,10.7723577 C27.3712693,10.7723577 26.6531193,11.0894277 26.1056911,11.7235772 C25.5582628,12.3577267 25.2845528,13.2601567 25.2845528,14.4308943 L25.2845528,14.4308943 Z M23.5121951,16.0406504 L23.5121951,14.4471545 C23.5121951,12.7994498 23.9403751,11.5067798 24.796748,10.5691057 C25.6531208,9.63143163 26.8130008,9.16260163 28.2764228,9.16260163 C29.7398447,9.16260163 30.8970147,9.63143163 31.7479675,10.5691057 C32.5989202,11.5067798 33.0243902,12.7994498 33.0243902,14.4471545 L33.0243902,16.0406504 C33.0243902,17.6666748 32.5962102,18.9403748 31.7398374,19.8617886 C30.8834646,20.7832024 29.7181646,21.2439024 28.2439024,21.2439024 C26.7804805,21.2439024 25.6260205,20.7859124 24.7804878,19.8699187 C23.9349551,18.953925 23.5121951,17.677515 23.5121951,16.0406504 L23.5121951,16.0406504 Z M40.0325203,9.3902439 C41.279139,9.3902439 42.227639,9.7262839 42.8780488,10.398374 C43.5284585,11.0704641 43.8536585,11.9214041 43.8536585,12.9512195 C43.8536585,13.8292727 43.6422785,14.5365827 43.2195122,15.0731707 C42.7967459,15.6097588 42.2981059,15.9864488 41.7235772,16.203252 L44.0813008,21 L42.097561,21 L39.9837398,16.5284553 L37.4146341,16.5284553 L37.4146341,21 L35.6747967,21 L35.6747967,9.3902439 L40.0325203,9.3902439 Z M37.4146341,15.0162602 L39.7235772,15.0162602 C40.4823886,15.0162602 41.0623286,14.8455302 41.4634146,14.504065 C41.8645007,14.1625999 42.0650407,13.6666699 42.0650407,13.0162602 C42.0650407,12.5718135 41.9674807,12.1924135 41.7723577,11.8780488 C41.5772348,11.5636841 41.3116548,11.3279141 40.9756098,11.1707317 C40.6395647,11.0135493 40.2439047,10.9349593 39.7886179,10.9349593 L37.4146341,10.9349593 L37.4146341,15.0162602 Z M50.5853659,21 L48.8292683,21 L48.8292683,11 L45.398374,11 L45.398374,9.3902439 L54.0487805,9.3902439 L54.0487805,11 L50.5853659,11 L50.5853659,21 Z" id="SORT" fill="#000000" sketch:type="MSShapeGroup"></path>
    </g>
</svg>
